<svg xmlns="http://www.w3.org/2000/svg" viewBox="0 0 1270.38 293.34"><defs><style>.cls-1{fill:#374155}</style></defs><g id="Layer_2" data-name="Layer 2"><g id="Layer_1-2" data-name="Layer 1"><path class="cls-1" d="M302.22 230.81a18.35 18.35 0 01-6.75-1.24 19.16 19.16 0 01-11.23-24.73 72.31 72.31 0 000-53.6 19.21 19.21 0 0136-13.51 110.43 110.43 0 010 80.62 19.23 19.23 0 01-18.02 12.46z"/><path class="cls-1" d="M212.52 293.34a115.3 115.3 0 110-230.6 113.84 113.84 0 0163.54 19.81 19.23 19.23 0 11-21.47 31.91 75.17 75.17 0 00-42.07-13.29 76.87 76.87 0 000 153.74 75.92 75.92 0 0042.15-13.1 19.22 19.22 0 1121.32 32 114 114 0 01-63.47 19.53zM0 10.53A11.47 11.47 0 012.46 3C4.1 1 6.61 0 10 0h30.72a9.29 9.29 0 016.59 3 10.06 10.06 0 013.07 7.54v268c0 3.5-1 6.14-2.9 7.9a11.18 11.18 0 01-7.81 2.63H10.36c-3.75 0-6.4-.88-8-2.63S0 282.06 0 278.56zm457.3 57.83a25.38 25.38 0 0111.14-2.2h17.73c3.4 0 5.91 1.12 7.55 3.36a19.3 19.3 0 013.33 7.4L499 93.83a90.86 90.86 0 019.31-11.52 55.44 55.44 0 0112.55-9.79 68.7 68.7 0 0117-6.78 90.31 90.31 0 0122.73-2.56 96.27 96.27 0 0122.3 2.39 64.58 64.58 0 0132.65 18.49 87.32 87.32 0 0111.76 15.59 55.62 55.62 0 0111.41-15.14 70.29 70.29 0 0116.58-11.72 88.78 88.78 0 0120.63-7.48 101.16 101.16 0 0123.34-2.66q20.7 0 36.43 7.56a74.23 74.23 0 0126.24 20.71 91.3 91.3 0 0115.88 30.71 128.18 128.18 0 015.36 37.57v117.07c0 4.22-1 7.4-3 9.57s-4.85 3.25-8.6 3.25H744.9c-4.69 0-7.81-.88-9.4-2.63s-2.36-4.86-2.36-9.3V159.33a62.37 62.37 0 00-2.64-18.07 44.38 44.38 0 00-8.16-15.52 41.39 41.39 0 00-13.87-10.87q-8.33-4.11-19.92-4.12a46.29 46.29 0 00-17.9 3.42 40.4 40.4 0 00-14.21 9.83 46.26 46.26 0 00-9.4 15.44 56.42 56.42 0 00-3.42 20.07v117q0 12.62-11.41 12.63h-26.85q-7 0-9.3-2.63t-2.29-9.3V159.5a63.61 63.61 0 00-2.54-17.8 45.81 45.81 0 00-7.9-15.51 40 40 0 00-13.78-11.06q-8.43-4.2-20-4.2a45.08 45.08 0 00-16.16 3.07 47.84 47.84 0 00-14.65 8.85 46.25 46.25 0 00-10.8 14.21 43.63 43.63 0 00-4.39 19.11v122.57a9.94 9.94 0 01-3 7.45 10.39 10.39 0 01-7.55 2.9h-29c-3.86 0-6.7-.9-8.52-2.72s-2.71-4.43-2.71-7.81v-202c.06-4.01 1.54-6.74 4.53-8.2zm411.14 157.89a37.78 37.78 0 009.3 10 64.2 64.2 0 0011.5 6.94 57.4 57.4 0 0011.24 3.94 39.6 39.6 0 008.51 1.23 73.82 73.82 0 0011.59-1.06 46.88 46.88 0 0012.54-3.77 30 30 0 0010-7.37 17.22 17.22 0 004.13-11.84q0-7-3.26-11.41a25 25 0 00-8.77-7.29 62.59 62.59 0 00-12.64-4.83q-7.11-1.92-15-4.21a147.84 147.84 0 01-31.41-11.84 80.93 80.93 0 01-21.33-15.88 57.22 57.22 0 01-12.2-19.67 68.42 68.42 0 01-3.85-23.35 58.38 58.38 0 0121.41-46.16 73.44 73.44 0 0124.48-13.07A102.05 102.05 0 01916.36 62a99.61 99.61 0 0121.94 2.2 71.61 71.61 0 0117.9 6.59 75.31 75.31 0 0115.54 11.05 166.3 166.3 0 0114.83 15.63 9.65 9.65 0 012.63 6.14q0 3.15-3.5 6-2.64 2.12-6.24 5.27c-2.4 2.1-4.77 4.16-7.1 6.14a72.44 72.44 0 01-6.67 5.09c-2.12 1.41-3.87 2.11-5.27 2.11-2.57 0-5.09-1.51-7.55-4.57a80 80 0 00-7.72-8 41 41 0 00-8.07-5.61 38.92 38.92 0 00-9.13-3.33 46.88 46.88 0 00-10.72-1.14 38.17 38.17 0 00-9.91 1.4 33.12 33.12 0 00-9.48 4.21 27.48 27.48 0 00-7.19 6.76 14.57 14.57 0 00-2.9 8.87 13.72 13.72 0 003.59 9.56 32.94 32.94 0 009.11 6.85 67.5 67.5 0 0012 4.82c4.32 1.3 8.35 2.45 12.09 3.51A224.77 224.77 0 01954.17 162a91 91 0 0123.22 14.48 61.07 61.07 0 0115.15 20Q998 208 998 223.44q0 16.32-6.47 29.22a63.74 63.74 0 01-17.94 21.86 82.23 82.23 0 01-27.14 13.69 117.38 117.38 0 01-34.11 4.73 109.71 109.71 0 01-22.47-2.37A94.71 94.71 0 01868 283.2a83.49 83.49 0 01-19.3-12.81 69.3 69.3 0 01-14.84-18.51 15.8 15.8 0 01-2.63-7.9 6.81 6.81 0 011.14-3.95 15.93 15.93 0 013.07-3.25l19.66-15.1a9.58 9.58 0 014.74-1.57 6.5 6.5 0 014.39 1.67 35.34 35.34 0 014.21 4.47zm401.94 52.48a8.74 8.74 0 01-4.74 8.34 14.75 14.75 0 01-4.83 1.57 34.83 34.83 0 01-5.7.45h-21.94c-3.74 0-6.35-1-7.81-3a20.24 20.24 0 01-3.24-7.54l-1.06-14.93a109.57 109.57 0 01-13.6 11.5 96.44 96.44 0 01-16.07 9.3 92.14 92.14 0 01-18.25 6.14 88.76 88.76 0 01-19.83 2.2 111.59 111.59 0 01-30.46-4.13 116.94 116.94 0 01-27.46-11.58 111.58 111.58 0 01-23.26-18 114.83 114.83 0 01-17.91-23.35 117.83 117.83 0 01-11.59-27.55 116.59 116.59 0 010-61.44 118.08 118.08 0 0111.59-27.56A113.85 113.85 0 011095.39 78a117.36 117.36 0 0127.46-11.58 111.59 111.59 0 0130.46-4.13 93.6 93.6 0 0121.41 2.37 89.65 89.65 0 0119 6.67 85.2 85.2 0 0116.41 10.36A101.05 101.05 0 011223.87 95l2.46-18.77c.59-2.12 1.14-3.84 1.66-5.19a10 10 0 011.94-3.24 5.82 5.82 0 012.89-1.67 18.67 18.67 0 014.4-.44h17.54a31.51 31.51 0 015.62.52 19.89 19.89 0 015.09 1.68 8.48 8.48 0 014.91 8.15zm-182.55-101.28a72.37 72.37 0 004.91 26.59 69.65 69.65 0 0013.7 22 65.74 65.74 0 0020.63 15 60.54 60.54 0 0025.93 5.56 64.56 64.56 0 0026.6-5.52 68.43 68.43 0 0021.5-15 71.5 71.5 0 0014.4-22 69.53 69.53 0 000-53 71.57 71.57 0 00-14.4-22 69.48 69.48 0 00-21.5-15.08 63.38 63.38 0 00-26.6-5.63 59.45 59.45 0 00-25.88 5.63 66.77 66.77 0 00-20.68 15 69.71 69.71 0 00-13.7 22 72 72 0 00-4.91 26.45z"/><circle cx="212.52" cy="178.04" r="33.57" fill="#2b9e90"/><path class="cls-1" d="M368.29 277.74a18.24 18.24 0 01-16.14-26.51 162.06 162.06 0 0017.15-72 160 160 0 00-17.18-74.18 18.24 18.24 0 1132.53-16.53 196.12 196.12 0 0121.13 91 198.59 198.59 0 01-21.11 88.28 18.29 18.29 0 01-16.38 9.94z"/></g></g></svg>